<svg width="1279" height="762" viewBox="0 0 1279 762" fill="none" xmlns="http://www.w3.org/2000/svg">
<path fill-rule="evenodd" clip-rule="evenodd" d="M1224.1 -102.983C1335.38 89.7738 1269.34 336.251 1076.58 447.539C924.61 535.281 739.244 512.793 613.067 404.881C562.691 361.798 490.402 341.855 432.996 374.998C376.999 407.329 359.319 478.897 355.78 543.461C351.667 618.511 310.929 690.06 240.981 730.445C130.872 794.017 -9.9234 756.29 -73.4947 646.182C-137.066 536.073 -99.3399 395.278 10.7688 331.706C61.663 302.323 119.113 294.581 172.463 305.625C240.724 319.756 316.225 332.996 376.594 298.142C444.815 258.755 471.637 175.787 472.006 97.0141C472.654 -41.6037 544.867 -176.186 673.574 -250.495C866.331 -361.783 1112.81 -295.74 1224.1 -102.983Z" fill="url(#paint0_linear)"/>
<defs>
<linearGradient id="paint0_linear" x1="373.795" y1="-77.4178" x2="776.806" y2="620.616" gradientUnits="userSpaceOnUse">
<stop stop-color="#7F7FD5"/>
<stop offset="1" stop-color="#E786D7"/>
</linearGradient>
</defs>
</svg>
